<?xml version="1.0" encoding="utf-8"?>
<!-- Generator: Adobe Illustrator 25.3.1, SVG Export Plug-In . SVG Version: 6.00 Build 0)  -->
<svg version="1.1" id="Layer_1" xmlns="http://www.w3.org/2000/svg" xmlns:xlink="http://www.w3.org/1999/xlink" x="0px" y="0px"
	 viewBox="0 0 900 550" style="enable-background:new 0 0 900 550;" xml:space="preserve">
<style type="text/css">
	.st0{fill:#1F93FF;}
	.st1{fill:#232323;}
</style>
<g>
	<g>
		<g>
			<path class="st0" d="M318.4,402.2l-2.7,11.6h-48.7l-2.3,10.2h42l-2.6,11.4h-42l-4.4,19h-14.2l12-52.2H318.4z"/>
			<path class="st1" d="M383.6,408.8c4.5,0,8,1.4,10.5,4.3c2.5,2.8,3.3,6.3,2.4,10.4c-0.8,3.5-2.8,6.7-5.9,9.4
				c-3.1,2.6-6.7,4.3-10.6,5l10.8,16.4h-15.8l-9.7-16.1H346l-3.7,16.1h-13.4l10.5-45.5H383.6z M348.5,427.3c16.9,0,26.7,0,29.6,0
				c1.3,0,2.4-0.3,3.2-1c0.9-0.7,1.5-1.6,1.7-2.7c0.3-1.1,0.1-2-0.5-2.7c-0.5-0.7-1.4-1-2.7-1h-29.6L348.5,427.3z"/>
			<path class="st1" d="M473.2,408.8c4.2,0,7.4,1.3,9.7,4c2.4,2.6,3.1,5.8,2.1,9.6l-4.3,18.5c-0.8,3.7-3,6.9-6.6,9.6
				c-3.4,2.6-7.3,3.9-11.5,3.9H428c-4.1,0-7.3-1.3-9.6-4c-2.3-2.6-3-5.8-2.1-9.6l4.3-18.5c0.9-3.8,3.1-7,6.6-9.6
				c3.6-2.6,7.4-4,11.4-4H473.2z M435.7,421.2c-1.2,0.9-1.9,1.9-2.2,3.2l-3.3,14.2c-0.3,1.2,0,2.3,0.7,3.2c0.8,0.8,1.9,1.3,3.2,1.3
				h27.6c1.5-0.1,2.8-0.5,3.9-1.3c1.2-0.9,1.9-2,2.2-3.2l3.3-14.2c0.3-1.3,0.1-2.4-0.7-3.2c-0.8-0.9-1.8-1.4-3.2-1.3h-27.6
				C438.2,419.9,436.9,420.3,435.7,421.2z"/>
			<path class="st1" d="M523.7,408.8l30.5,30.4l7-30.4h13.4l-10.5,45.5h-13.1L520.7,424l-7,30.4h-13.4l10.5-45.5H523.7z"/>
			<path class="st1" d="M656.5,408.8l-2.6,11.1h-23l-8,34.5h-13.4l8-34.5h-23l2.6-11.1H656.5z"/>
		</g>
	</g>
	<g>
		<g>
			<path class="st0" d="M349.4,479.8l-2.7,11.7h-48.9l-2.4,10.2h42.2l-2.6,11.4h-42.2l-4.4,19.1H274l12.1-52.5H349.4z"/>
			<path class="st1" d="M384,486.4l-8,34.7h40.6l-2.6,11.1h-54.2l10.6-45.8H384z"/>
			<path class="st1" d="M497,486.4c4.2,0,7.4,1.3,9.7,4c2.4,2.7,3.1,5.9,2.1,9.6l-4.3,18.6c-0.8,3.8-3,7-6.6,9.6
				c-3.5,2.6-7.3,3.9-11.5,3.9h-34.9c-4.1,0-7.3-1.3-9.7-4c-2.3-2.7-3-5.9-2.1-9.6l4.3-18.6c0.9-3.8,3.2-7,6.6-9.6
				c3.6-2.7,7.4-4,11.5-4H497z M459.3,498.9c-1.2,0.9-1.9,2-2.2,3.3l-3.3,14.3c-0.3,1.3,0,2.3,0.7,3.3c0.8,0.8,1.9,1.3,3.3,1.3h27.7
				c1.5-0.1,2.8-0.5,3.9-1.3c1.2-0.9,1.9-2,2.2-3.3l3.3-14.3c0.3-1.3,0.1-2.4-0.7-3.3c-0.8-0.9-1.8-1.4-3.3-1.3h-27.7
				C461.8,497.5,460.5,498,459.3,498.9z"/>
			<path class="st1" d="M547.4,486.4l6.1,28.8l19.3-28.4h13.1l6.1,28.4l19.4-28.8H626l-30.9,45.8H582l-6.6-28.5l-19.8,28.5h-13.1
				l-9.8-45.8H547.4z"/>
		</g>
	</g>
	<path class="st0" d="M410,17.8c-38.4,0-77,31.1-86.1,69.6l-71.2,300h53.7c41.8,0,71.7-39.5,79.7-64.4l18.1-78h134.9l-4.5,19
		l76-61.4l-46.8-61.4l-4.5,19H424.3l-5.3,22.2l-38.9-51l63.1-51l-5.3,22.2h119.6c38.4,0,77-31.1,86.1-69.6l3.6-15.3H410z"/>
</g>
</svg>
